<svg version="1" xmlns="http://www.w3.org/2000/svg" width="360" height="360" viewBox="0 0 270.000000 270.000000"><path d="M171.5 4.2c-4.7 1.7-7.9 4.3-10 8.2l-2 3.6h-11.1c-9.8 0-11.8-.3-16.1-2.4-7.8-3.8-17-5.4-29.6-5.1-6.1.1-12.1.5-13.2.8-15.3 3.9-20.9 7-34 18.6-5.7 5-20.6 15.1-27.9 18.8-6.3 3.2-13.9 2.9-21.5-.9-2.8-1.3-5.1-2-5.1-1.5 0 .6 3.7 4.7 8.3 9.1 9.5 9.3 19.5 15.2 28.4 16.6 13 2.2 33.4 2.9 46.6 1.7L91 71v183.6l-4-.3-4-.2v5c0 3.6.5 5.4 2 6.9 2.5 2.5 6.2 2.6 8.4.1 1.7-1.9 1.8-1.9 3.7 0 3.7 3.7 9.6 1 9.9-4.6.4-6.2 0-7.6-1.7-7.4-1 .1-2.8.1-4 0L99 254v-92.4c0-91.4 0-92.4 2-92.9s2 .1 2.2 43.6l.3 44h97.1l-.2 3.8c-.1 3.8-.1 3.9 3.5 4 5.2.2 6.4-.1 8.4-1.8 2.3-2.2 2.2-6.8-.3-8.6l-2-1.4 2-1.8c1.1-1 2-3.1 2-4.6 0-3.9-3.6-6.1-9.2-5.7l-4.3.3v8l-44-.2c-24.2-.1-44.3-.2-44.8-.3-.4 0-.7-18.4-.7-40.9l.1-40.8 8.4-4.2C133 55.4 145 41.6 145 32.8V30h7.5c4.2 0 7.5.4 7.5 1 0 1.8 6 7.8 9.6 9.5 4.4 2 10.5 2.3 15.6.6 3.5-1.2 10.8-8 10.8-10.1 0-.7 11.7-1 34.5-.9 33.4 0 34.5.1 37.1 2.1l2.6 2.1-.7-2.4c-1.6-5.5-.9-5.4-37.8-5.9-21.8-.3-34.2-.9-34.2-1.5s12-1.1 33.5-1.3c32.9-.2 33.5-.2 36.4 1.9l2.9 2.2-.7-3.9c-.4-2.2-1.6-4.7-2.7-5.6-2-1.7-.2-1.7-62.1-1.8-6.8 0-8.8-.3-8.8-1.4 0-2.1-5.1-7.2-9.5-9.5-4.3-2.3-10.1-2.6-15-.9z"/></svg>