<?xml version="1.0" encoding="UTF-8" standalone="no"?>
<!-- Created with Inkscape (http://www.inkscape.org/) -->

<svg
   xmlns:dc="http://purl.org/dc/elements/1.1/"
   xmlns:cc="http://creativecommons.org/ns#"
   xmlns:rdf="http://www.w3.org/1999/02/22-rdf-syntax-ns#"
   xmlns:svg="http://www.w3.org/2000/svg"
   xmlns="http://www.w3.org/2000/svg"
   xmlns:sodipodi="http://sodipodi.sourceforge.net/DTD/sodipodi-0.dtd"
   xmlns:inkscape="http://www.inkscape.org/namespaces/inkscape"
   width="338.66666mm"
   height="197.55556mm"
   viewBox="0 0 338.66666 197.55556"
   version="1.1"
   id="svg8"
   inkscape:version="0.92.1 r15371"
   sodipodi:docname="full_logo.svg">
  <defs
     id="defs2">
    <clipPath
       id="clipPath3698"
       clipPathUnits="userSpaceOnUse">
      <path
         inkscape:connector-curvature="0"
         id="path3696"
         d="M 0,560 H 960 V 0 H 0 Z" />
    </clipPath>
    <clipPath
       id="clipPath3706"
       clipPathUnits="userSpaceOnUse">
      <path
         inkscape:connector-curvature="0"
         id="path3704"
         d="M 103.375,457.25 H 461.5 V 99.125 H 103.375 Z" />
    </clipPath>
    <clipPath
       id="clipPath3724"
       clipPathUnits="userSpaceOnUse">
      <path
         inkscape:connector-curvature="0"
         id="path3722"
         d="M 0,560 H 960 V 0 H 0 Z" />
    </clipPath>
  </defs>
  <sodipodi:namedview
     id="base"
     pagecolor="#ffffff"
     bordercolor="#666666"
     borderopacity="1.0"
     inkscape:pageopacity="0.0"
     inkscape:pageshadow="2"
     inkscape:zoom="0.82"
     inkscape:cx="511.42856"
     inkscape:cy="326.99189"
     inkscape:document-units="mm"
     inkscape:current-layer="g3688"
     showgrid="false"
     inkscape:window-width="1858"
     inkscape:window-height="1057"
     inkscape:window-x="1974"
     inkscape:window-y="-8"
     inkscape:window-maximized="1" />
  <metadata
     id="metadata5">
    <rdf:RDF>
      <cc:Work
         rdf:about="">
        <dc:format>image/svg+xml</dc:format>
        <dc:type
           rdf:resource="http://purl.org/dc/dcmitype/StillImage" />
        <dc:title></dc:title>
      </cc:Work>
    </rdf:RDF>
  </metadata>
  <g
     inkscape:label="Layer 1"
     inkscape:groupmode="layer"
     id="layer1"
     transform="translate(29.48214,-76.513899)">
    <g
       transform="matrix(0.35277777,0,0,-0.35277777,-29.48214,274.06945)"
       inkscape:label="Flamingo_logo"
       id="g3688">
      <path
         inkscape:connector-curvature="0"
         id="path3690"
         style="fill:#754c24;fill-opacity:1;fill-rule:nonzero;stroke:none"
         d="M 0,0 H 960 V 560 H 0 Z" />
      <g
         id="g3718">
        <g
           clip-path="url(#clipPath3724)"
           id="g3720">
          <g
             transform="translate(137,155.3125)"
             id="g3726">
            <path
               inkscape:connector-curvature="0"
               id="path3728"
               style="fill:#f2e7cf;fill-opacity:1;fill-rule:nonzero;stroke:none"
               d="m 0,0 c 0,3.313 -2.687,6 -6,6 -3.313,0 -6,-2.687 -6,-6 0,-3.313 2.687,-6 6,-6 3.313,0 6,2.687 6,6" />
          </g>
          <g
             transform="translate(149,155.3125)"
             id="g3730">
            <path
               inkscape:connector-curvature="0"
               id="path3732"
               style="fill:#f2e7cf;fill-opacity:1;fill-rule:nonzero;stroke:none"
               d="m 0,0 c 0,3.313 -2.687,6 -6,6 -3.313,0 -6,-2.687 -6,-6 0,-3.313 2.687,-6 6,-6 3.313,0 6,2.687 6,6" />
          </g>
          <path
             inkscape:connector-curvature="0"
             id="path3734"
             style="fill:#f8adb2;fill-opacity:1;fill-rule:nonzero;stroke:none"
             d="m 141,163 h -8 v 194 h 8 z" />
          <path
             inkscape:connector-curvature="0"
             id="path3736"
             style="fill:#f8adb2;fill-opacity:1;fill-rule:nonzero;stroke:none"
             d="m 125,163 h 24 v -8 h -24 z" />
          <g
             transform="translate(42,374.3315)"
             id="g3738">
            <path
               inkscape:connector-curvature="0"
               id="path3740"
               style="fill:#f8adb2;fill-opacity:1;fill-rule:nonzero;stroke:none"
               d="M 0,0 C 6.986,-12.165 25.751,-25.566 35.929,-27.033 124.783,-39.832 144.035,-0.794 144.786,10.109 146.59,36.328 96.951,40.483 72.931,28.005 61.461,22.046 54.857,13.103 44.444,6.459 39.427,3.257 29.209,-4.206 22.886,-5.957 13.33,-8.603 0,0 0,0" />
          </g>
          <g
             transform="translate(249.8437,265.1562)"
             id="g3742">
            <path
               inkscape:connector-curvature="0"
               id="path3744"
               style="fill:#f2e7cf;fill-opacity:1;fill-rule:nonzero;stroke:none"
               d="m 0,0 c -3.313,0 -6,-2.687 -6,-6 0,-3.313 2.687,-6 6,-6 3.313,0 6,2.687 6,6 0,3.313 -2.687,6 -6,6" />
          </g>
          <g
             transform="translate(249.8437,277.1562)"
             id="g3746">
            <path
               inkscape:connector-curvature="0"
               id="path3748"
               style="fill:#f2e7cf;fill-opacity:1;fill-rule:nonzero;stroke:none"
               d="m 0,0 c -3.313,0 -6,-2.687 -6,-6 0,-3.313 2.687,-6 6,-6 3.313,0 6,2.687 6,6 0,3.313 -2.687,6 -6,6" />
          </g>
          <path
             inkscape:connector-curvature="0"
             id="path3750"
             style="fill:#f8adb2;fill-opacity:1;fill-rule:nonzero;stroke:none"
             d="m 250,253 h -8 v 24 h 8 z" />
          <path
             inkscape:connector-curvature="0"
             id="path3752"
             style="fill:#f8adb2;fill-opacity:1;fill-rule:nonzero;stroke:none"
             d="m 153,269 h -8 v 97 h 8 z" />
          <path
             inkscape:connector-curvature="0"
             id="path3754"
             style="fill:#f8adb2;fill-opacity:1;fill-rule:nonzero;stroke:none"
             d="m 242,261 h -97 v 8 h 97 z" />
          <path
             inkscape:connector-curvature="0"
             id="path3756"
             style="fill:#f8adb2;fill-opacity:1;fill-rule:nonzero;stroke:none"
             d="m 163,387 h 49 v 14 h -49 z" />
          <path
             inkscape:connector-curvature="0"
             id="path3758"
             style="fill:#f2e7cf;fill-opacity:1;fill-rule:nonzero;stroke:none"
             d="m 284,394 h -48 v 7 h 48 z" />
          <path
             inkscape:connector-curvature="0"
             id="path3760"
             style="fill:#f2e7cf;fill-opacity:1;fill-rule:nonzero;stroke:none"
             d="m 284,387 h -48 v 4 h 48 z" />
          <g
             transform="translate(239.5,394.3442)"
             id="g3762">
            <path
               inkscape:connector-curvature="0"
               id="path3764"
               style="fill:#f8adb2;fill-opacity:1;fill-rule:nonzero;stroke:none"
               d="m 0,0 c 0,-10.908 -8.842,-19.75 -19.75,-19.75 -10.908,0 -19.75,8.842 -19.75,19.75 0,10.907 8.842,19.75 19.75,19.75 C -8.842,19.75 0,10.907 0,0" />
          </g>
          <g
             transform="translate(226.1719,406.6562)"
             id="g3766">
            <path
               inkscape:connector-curvature="0"
               id="path3768"
               style="fill:#f2e7cf;fill-opacity:1;fill-rule:nonzero;stroke:none"
               d="m 0,0 c -5.152,0 -9.328,-4.177 -9.328,-9.328 0,-5.151 4.176,-9.328 9.328,-9.328 5.152,0 9.328,4.177 9.328,9.328 C 9.328,-4.177 5.152,0 0,0" />
          </g>
          <g
             transform="translate(227.5,404)"
             id="g3770">
            <path
               inkscape:connector-curvature="0"
               id="path3772"
               style="fill:#000000;fill-opacity:1;fill-rule:nonzero;stroke:none"
               d="m 0,0 c -3.866,0 -7,-3.134 -7,-7 0,-3.866 3.134,-7 7,-7 3.866,0 7,3.134 7,7 0,3.866 -3.134,7 -7,7" />
          </g>
          <g
             transform="translate(304,401)"
             id="g3774">
            <path
               inkscape:connector-curvature="0"
               id="path3776"
               style="fill:#cccccc;fill-opacity:1;fill-rule:nonzero;stroke:none"
               d="m 0,0 c 0,0 5,0 6.375,-3.5 0.824,-2.098 1.162,-9 1.162,-9 0,0 -1.912,5.5 -7.537,5.5 h -24 v 7 z" />
          </g>
          <g
             transform="translate(304,394)"
             id="g3778">
            <path
               inkscape:connector-curvature="0"
               id="path3780"
               style="fill:#cccccc;fill-opacity:1;fill-rule:nonzero;stroke:none"
               d="M 0,0 H -24" />
          </g>
          <g
             transform="translate(304,391)"
             id="g3782">
            <path
               inkscape:connector-curvature="0"
               id="path3784"
               style="fill:#cccccc;fill-opacity:1;fill-rule:nonzero;stroke:none"
               d="m 0,0 c 0,0 5,0 6.375,-3.5 0.824,-2.098 1.162,-6 1.162,-6 0,0 -1.912,5.5 -7.537,5.5 h -24 v 4 z" />
          </g>
        </g>
      </g>
      <text
         id="text3788"
         style="font-variant:normal;font-weight:normal;font-stretch:normal;font-size:177px;font-family:'Zilla Slab';-inkscape-font-specification:ZillaSlab-Regular;writing-mode:lr-tb;fill:#f8adb2;fill-opacity:1;fill-rule:nonzero;stroke:none"
         transform="matrix(1,0,0,-1,260,149.3125)">
        <tspan
           id="tspan3786"
           sodipodi:role="line"
           y="0"
           x="0 47.082001 132.573 285.32401 334.884 436.30499 473.65201 523.21198">lamin.io</tspan>
      </text>
      <text
         id="text3792"
         style="font-variant:normal;font-weight:normal;font-stretch:normal;font-size:28px;font-family:'Lucida Fax';-inkscape-font-specification:LucidaFax;writing-mode:lr-tb;fill:#f8adb2;fill-opacity:1;fill-rule:nonzero;stroke:none"
         transform="scale(1,-1)"
         x="119.34146"
         y="-115.41463">
        <tspan
           id="tspan3790"
           sodipodi:role="line"
           y="-115.41463"
           x="119.34146 134.85347 146.13747 158.79346 174.55746 189.34146 204.12546 213.89746 225.68547 238.34146 254.10547 269.86948 278.71747 294.42548 309.68546 324.94547 342.47348 360.84146 379.23746 390.52145 399.95746 418.35345 435.18146 444.02945 458.81345 476.34146 488.12946 499.41345 522.56946 538.27747 550.93347 566.69745 575.54547 587.3335 604.86145 617.51746 626.36548 645.01349 663.38147 681.35748 690.79352 700.22949 715.4895 724.33746 742.31348 760.68152 775.46552 784.90149 803.29749 819.06146 833.84552 848.62952 864.39349">Stress-free accounting software for public businesses</tspan>
      </text>
    </g>
  </g>
</svg>
